<svg width="26" height="26" fill="none" xmlns="http://www.w3.org/2000/svg"><path d="M12.909 9.177c.991 0 1.933.397 2.627 1.091a3.736 3.736 0 011.091 2.628c0 .979-.396 1.933-1.09 2.627a3.736 3.736 0 01-2.628 1.091 3.74 3.74 0 01-2.628-1.09 3.736 3.736 0 01-1.09-2.628c0-.98.396-1.934 1.09-2.628a3.737 3.737 0 012.628-1.09zm0-2.478a6.242 6.242 0 00-4.388 1.81 6.168 6.168 0 00-1.81 4.387c0 1.648.658 3.222 1.81 4.387a6.168 6.168 0 004.388 1.81 6.242 6.242 0 004.388-1.81 6.168 6.168 0 001.809-4.387 6.242 6.242 0 00-1.81-4.388 6.168 6.168 0 00-4.387-1.81zm0-6.198c.297 0 .595.112.818.31.223.199.372.484.409.781v.223a11.192 11.192 0 016.532 3.086 11.138 11.138 0 013.272 6.433l.037.335h.074c.31 0 .62.124.856.334.235.211.371.508.384.83.012.31-.087.62-.285.868a1.215 1.215 0 01-.806.434h-.223a11.192 11.192 0 01-3.086 6.532 11.065 11.065 0 01-6.433 3.272l-.335.037v.075c0 .31-.123.62-.334.855-.21.235-.508.372-.83.384-.31.012-.62-.087-.868-.285a1.215 1.215 0 01-.434-.806v-.223a11.192 11.192 0 01-6.532-3.086 11.066 11.066 0 01-3.272-6.433l-.037-.334h-.074a1.3 1.3 0 01-.856-.335 1.166 1.166 0 01-.384-.83c-.012-.31.087-.62.285-.868a1.22 1.22 0 01.806-.434h.223a11.192 11.192 0 013.086-6.531 11.138 11.138 0 016.433-3.273l.334-.037v-.074c0-.335.137-.645.36-.88.223-.236.545-.36.88-.36z" fill="#fff"/></svg>