<svg width="52" height="53" fill="none" xmlns="http://www.w3.org/2000/svg"><path d="M44.171 7.973C39.293 3.095 32.807.408 25.908.408c-6.899 0-13.385 2.687-18.263 7.565C2.767 12.851.08 19.337.08 26.236c0 6.9 2.687 13.385 7.565 18.264 4.878 4.878 11.364 7.564 18.263 7.564 6.9 0 13.385-2.686 18.264-7.565 4.878-4.878 7.564-11.364 7.564-18.263 0-6.899-2.686-13.385-7.565-18.263zM9.788 10.116a22.743 22.743 0 017.843-5.134 21.285 21.285 0 00-2.162 3.326 29.752 29.752 0 00-1.99 4.746c-1.92-.319-3.697-.71-5.286-1.17a23.249 23.249 0 011.595-1.768zm-3.43 4.375c1.859.595 3.984 1.097 6.302 1.494-.645 2.741-1.025 5.69-1.116 8.737H3.16a22.593 22.593 0 013.198-10.23zm-.164 23.21a22.597 22.597 0 01-3.033-9.95h8.389c.099 2.96.471 5.825 1.095 8.494-2.366.384-4.544.873-6.451 1.456zm3.594 4.656a23.186 23.186 0 01-1.8-2.023c1.647-.457 3.488-.844 5.47-1.154a29.801 29.801 0 002.01 4.809c.724 1.361 1.52 2.557 2.373 3.582a22.736 22.736 0 01-8.053-5.214zm14.605 6.289c-2.3-.645-4.478-2.746-6.248-6.079a26.34 26.34 0 01-1.63-3.792 83.064 83.064 0 017.878-.475v10.346zm0-13.376a85.34 85.34 0 00-8.736.555c-.609-2.518-.976-5.244-1.076-8.074h9.812v7.519zm0-10.549h-9.818c.092-2.909.465-5.71 1.093-8.293 2.744.343 5.686.552 8.725.612v7.681zm0-10.712a81.876 81.876 0 01-7.865-.525 26.341 26.341 0 011.617-3.754c1.77-3.333 3.947-5.434 6.248-6.079v10.358zm21.16.643a22.598 22.598 0 013.103 10.07h-8.383c-.09-3.012-.463-5.928-1.095-8.642 2.334-.376 4.486-.856 6.375-1.428zm-3.524-4.536a23.212 23.212 0 011.706 1.908 49.464 49.464 0 01-5.367 1.12 29.82 29.82 0 00-2.02-4.836 21.299 21.299 0 00-2.162-3.326 22.743 22.743 0 017.843 5.134zM27.423 27.75h9.813c-.101 2.852-.473 5.599-1.09 8.133a84.202 84.202 0 00-8.723-.605V27.75zm0-3.03v-7.67a85.462 85.462 0 008.743-.552c.618 2.563.984 5.34 1.076 8.223h-9.819zm0-21.07c2.301.645 4.478 2.746 6.249 6.079a26.392 26.392 0 011.638 3.818 83.165 83.165 0 01-7.887.472V3.65zm0 44.995V38.309c2.736.053 5.384.23 7.86.52a26.34 26.34 0 01-1.61 3.738c-1.772 3.333-3.949 5.434-6.25 6.079zm14.606-6.289a22.732 22.732 0 01-8.053 5.214c.853-1.025 1.648-2.22 2.372-3.582a29.738 29.738 0 001.985-4.732c1.964.324 3.78.725 5.4 1.196a23.21 23.21 0 01-1.704 1.904zm3.513-4.517c-1.88-.605-4.035-1.113-6.389-1.515.635-2.691 1.014-5.585 1.114-8.574h8.389a22.6 22.6 0 01-3.114 10.089z" fill="#fff"/></svg>