<svg width="51" height="53" fill="none" xmlns="http://www.w3.org/2000/svg"><path d="M39.557 15.268a1.876 1.876 0 00-.534 0c-3.937-.128-7.06-3.353-7.06-7.316 0-4.038 3.276-7.34 7.34-7.34 4.038 0 7.34 3.276 7.34 7.34-.025 3.963-3.15 7.188-7.086 7.316zm8.28 17.602c-2.845 1.904-6.833 2.615-10.516 2.133.965-2.083 1.474-4.394 1.499-6.833 0-2.54-.559-4.953-1.626-7.06 3.76-.509 7.747.202 10.617 2.107 4.014 2.642 4.014 6.985.026 9.652zM11.388 15.268c.178-.026.356-.026.534 0 3.937-.128 7.06-3.353 7.06-7.316a7.328 7.328 0 00-7.34-7.34c-4.038 0-7.315 3.276-7.315 7.34 0 3.963 3.124 7.188 7.061 7.316zm.28 12.902c0 2.465.533 4.801 1.498 6.91-3.581.38-7.315-.381-10.058-2.185-4.013-2.667-4.013-7.01 0-9.677 2.718-1.829 6.553-2.566 10.16-2.16-1.042 2.134-1.6 4.547-1.6 7.113zm14.148 7.671a2.869 2.869 0 00-.66 0c-4.674-.152-8.408-3.988-8.408-8.712.025-4.826 3.911-8.738 8.763-8.738a8.737 8.737 0 018.737 8.738c-.025 4.724-3.733 8.56-8.432 8.712zM17.56 41.1c-3.835 2.564-3.835 6.78 0 9.32 4.37 2.922 11.532 2.922 15.9 0 3.836-2.565 3.836-6.78 0-9.32-4.343-2.922-11.505-2.922-15.9 0z" fill="#fff"/></svg>