<svg width="52" height="36" fill="none" xmlns="http://www.w3.org/2000/svg"><path d="M38.2 31.578h.108c.62 0 1.119-.5 1.119-1.119v-9.402c1.704-.706 2.92-2.65 2.92-4.962 0-2.313-1.216-4.257-2.92-4.962V1.73c0-.62-.5-1.119-1.119-1.119H38.2c-.62 0-1.119.5-1.119 1.119v28.73c0 .618.5 1.118 1.119 1.118zM9.644 35.324h4.93c.39 0 .694-.315.694-.706 0-.26-.152-.5-.39-.63l-.837-.445a1.744 1.744 0 01-.869-1.031l-2.247-9.838h1.867V9.504l-8.86.01A2.942 2.942 0 00.99 12.447v7.308a2.943 2.943 0 002.942 2.931h1.423L8.113 34.25a1.629 1.629 0 001.53 1.075z" fill="#fff"/><path d="M36.093 2.142c-5.049 2.302-12.465 5.581-22.215 7.275v13.366c9.783 1.705 17.177 4.962 22.215 7.275V2.142zm8.002 13.953c0 .293.24.543.543.543h6.82a.544.544 0 00.542-.543.545.545 0 00-.543-.543h-6.819a.552.552 0 00-.542.543zm.174-3.79a.505.505 0 00.25-.065l6.232-3.279a.54.54 0 00.228-.727.55.55 0 00-.727-.228l-6.233 3.279a.54.54 0 00.25 1.02zm-.25 8.6l6.233 3.279a.504.504 0 00.25.065c.195 0 .38-.109.477-.282a.54.54 0 00-.228-.728L44.52 19.96a.532.532 0 00-.727.228.525.525 0 00.227.717z" fill="#fff"/></svg>