<svg width="46" height="53" fill="none" xmlns="http://www.w3.org/2000/svg"><path d="M28.756.612h-12.22c-2.704 0-4.914 2.184-4.914 4.888v2.444a4.882 4.882 0 004.888 4.888h12.246a4.882 4.882 0 004.888-4.888V5.5C33.67 2.796 31.46.612 28.756.612z" fill="#fff"/><path d="M36.27 7.944c0 4.134-3.38 7.514-7.514 7.514h-12.22c-4.134 0-7.514-3.38-7.514-7.514 0-1.456-1.56-2.366-2.86-1.69A11.627 11.627 0 000 16.524V40.99c0 6.396 5.226 11.622 11.622 11.622H33.67c6.396 0 11.622-5.226 11.622-11.622V16.524c0-4.446-2.496-8.32-6.162-10.27-1.3-.676-2.86.234-2.86 1.69zM31.33 28.51l-10.4 10.4c-.39.39-.884.572-1.378.572-.494 0-.988-.182-1.378-.572l-3.9-3.9a1.962 1.962 0 010-2.756 1.962 1.962 0 012.756 0l2.522 2.522 9.022-9.022a1.962 1.962 0 012.756 0 1.962 1.962 0 010 2.756z" fill="#fff"/></svg>